{
    "asset" : {
        "generator" : "Khronos glTF Blender I/O v1.6.16",
        "version" : "2.0"
    },
    "scene" : 0,
    "scenes" : [
        {
            "name" : "Scene",
            "nodes" : [
                0,
                1,
                2,
                3,
                4,
                5,
                6,
                7,
                8,
                9
            ]
        }
    ],
    "nodes" : [
        {
            "mesh" : 0,
            "name" : "Burner1",
            "rotation" : [
                0,
                0.7071068286895752,
                0,
                0.7071068286895752
            ],
            "scale" : [
                0.15000009536743164,
                2,
                0.15000015497207642
            ],
            "translation" : [
                0.005947113037109375,
                1.9529433250427246,
                -0.10780120640993118
            ]
        },
        {
            "mesh" : 1,
            "name" : "Burner2",
            "scale" : [
                0.15000009536743164,
                2,
                0.15000015497207642
            ],
            "translation" : [
                0.005947113037109375,
                1.9645328521728516,
                0.1239885613322258
            ]
        },
        {
            "name" : "Light",
            "rotation" : [
                0.16907577216625214,
                0.7558802962303162,
                -0.27217137813568115,
                0.570947527885437
            ],
            "translation" : [
                3.977353096008301,
                6.0522003173828125,
                -1.0054539442062378
            ]
        },
        {
            "name" : "Camera",
            "rotation" : [
                -0.7825434803962708,
                -0.07161042094230652,
                0.11601901054382324,
                -0.6074844002723694
            ],
            "translation" : [
                7.358891487121582,
                4.958309173583984,
                6.925790786743164
            ]
        },
        {
            "mesh" : 2,
            "name" : "Balloon",
            "scale" : [
                0.5833335518836975,
                0.5833333134651184,
                0.5833333134651184
            ]
        },
        {
            "mesh" : 3,
            "name" : "Basket"
        },
        {
            "mesh" : 4,
            "name" : "Basket_top_edge",
            "rotation" : [
                0,
                0,
                -0.7071067690849304,
                0.7071068286895752
            ]
        },
        {
            "mesh" : 5,
            "name" : "FlameSupports"
        },
        {
            "mesh" : 6,
            "name" : "Plane"
        },
        {
            "mesh" : 7,
            "name" : "Black_ropes",
            "translation" : [
                1.27288818359375,
                1.5507559776306152,
                0
            ]
        }
    ],
    "materials" : [
        {
            "doubleSided" : true,
            "name" : "Material.001",
            "pbrMetallicRoughness" : {
                "baseColorTexture" : {
                    "index" : 0
                },
                "metallicFactor" : 0,
                "roughnessFactor" : 0.5
            }
        },
        {
            "doubleSided" : true,
            "name" : "BalloonMaterial",
            "pbrMetallicRoughness" : {
                "baseColorTexture" : {
                    "index" : 1
                },
                "metallicFactor" : 0,
                "roughnessFactor" : 0.5
            }
        },
        {
            "doubleSided" : true,
            "name" : "Basket_Material",
            "pbrMetallicRoughness" : {
                "baseColorTexture" : {
                    "index" : 2
                },
                "metallicFactor" : 0,
                "roughnessFactor" : 0.5
            }
        },
        {
            "doubleSided" : true,
            "name" : "Pipes",
            "pbrMetallicRoughness" : {
                "baseColorFactor" : [
                    0.2674582004547119,
                    0.06383057683706284,
                    0.009563954547047615,
                    1
                ],
                "metallicFactor" : 0,
                "roughnessFactor" : 0.5
            }
        },
        {
            "doubleSided" : true,
            "name" : "FlameGrate",
            "pbrMetallicRoughness" : {
                "baseColorTexture" : {
                    "index" : 3
                },
                "metallicFactor" : 0,
                "roughnessFactor" : 0.5
            }
        },
        {
            "doubleSided" : true,
            "name" : "Black",
            "pbrMetallicRoughness" : {
                "baseColorFactor" : [
                    0,
                    0,
                    0,
                    1
                ],
                "metallicFactor" : 0,
                "roughnessFactor" : 0.5
            }
        }
    ],
    "meshes" : [
        {
            "name" : "Sphere.002",
            "primitives" : [
                {
                    "attributes" : {
                        "POSITION" : 0,
                        "NORMAL" : 1,
                        "TEXCOORD_0" : 2
                    },
                    "indices" : 3,
                    "material" : 0
                }
            ]
        },
        {
            "name" : "Sphere.005",
            "primitives" : [
                {
                    "attributes" : {
                        "POSITION" : 4,
                        "NORMAL" : 5,
                        "TEXCOORD_0" : 6
                    },
                    "indices" : 3,
                    "material" : 0
                }
            ]
        },
        {
            "name" : "BalloonMesh",
            "primitives" : [
                {
                    "attributes" : {
                        "POSITION" : 7,
                        "NORMAL" : 8,
                        "TEXCOORD_0" : 9
                    },
                    "indices" : 10,
                    "material" : 1
                }
            ]
        },
        {
            "name" : "Basket mesh",
            "primitives" : [
                {
                    "attributes" : {
                        "POSITION" : 11,
                        "NORMAL" : 12,
                        "TEXCOORD_0" : 13
                    },
                    "indices" : 14,
                    "material" : 2
                }
            ]
        },
        {
            "name" : "Basket top edge mesh",
            "primitives" : [
                {
                    "attributes" : {
                        "POSITION" : 15,
                        "NORMAL" : 16
                    },
                    "indices" : 17,
                    "material" : 3
                }
            ]
        },
        {
            "name" : "FlameSupportMesh",
            "primitives" : [
                {
                    "attributes" : {
                        "POSITION" : 18,
                        "NORMAL" : 19
                    },
                    "indices" : 20,
                    "material" : 3
                }
            ]
        },
        {
            "name" : "Plane",
            "primitives" : [
                {
                    "attributes" : {
                        "POSITION" : 21,
                        "NORMAL" : 22,
                        "TEXCOORD_0" : 23
                    },
                    "indices" : 24,
                    "material" : 4
                }
            ]
        },
        {
            "name" : "Black ropes mesh",
            "primitives" : [
                {
                    "attributes" : {
                        "POSITION" : 25,
                        "NORMAL" : 26
                    },
                    "indices" : 27,
                    "material" : 5
                }
            ]
        }
    ],
    "textures" : [
        {
            "sampler" : 0,
            "source" : 0
        },
        {
            "sampler" : 0,
            "source" : 1
        },
        {
            "sampler" : 0,
            "source" : 2
        },
        {
            "sampler" : 0,
            "source" : 3
        }
    ],
    "images" : [
        {
            "bufferView" : 4,
            "mimeType" : "image/jpeg",
            "name" : "pikist"
        },
        {
            "bufferView" : 12,
            "mimeType" : "image/png",
            "name" : "brady-texture-2kx2k"
        },
        {
            "bufferView" : 17,
            "mimeType" : "image/jpeg",
            "name" : "WickerRepeat"
        },
        {
            "bufferView" : 28,
            "mimeType" : "image/png",
            "name" : "FlameGrate"
        }
    ],
    "accessors" : [
        {
            "bufferView" : 0,
            "componentType" : 5126,
            "count" : 1504,
            "max" : [
                0.9999997019767761,
                1,
                0.9999994039535522
            ],
            "min" : [
                -0.9999990463256836,
                -0.7071067690849304,
                -0.9999987483024597
            ],
            "type" : "VEC3"
        },
        {
            "bufferView" : 1,
            "componentType" : 5126,
            "count" : 1504,
            "type" : "VEC3"
        },
        {
            "bufferView" : 2,
            "componentType" : 5126,
            "count" : 1504,
            "type" : "VEC2"
        },
        {
            "bufferView" : 3,
            "componentType" : 5123,
            "count" : 2208,
            "type" : "SCALAR"
        },
        {
            "bufferView" : 5,
            "componentType" : 5126,
            "count" : 1504,
            "max" : [
                0.9999997019767761,
                1,
                0.9999994039535522
            ],
            "min" : [
                -0.9999990463256836,
                -0.7071067690849304,
                -0.9999987483024597
            ],
            "type" : "VEC3"
        },
        {
            "bufferView" : 6,
            "componentType" : 5126,
            "count" : 1504,
            "type" : "VEC3"
        },
        {
            "bufferView" : 7,
            "componentType" : 5126,
            "count" : 1504,
            "type" : "VEC2"
        },
        {
            "bufferView" : 8,
            "componentType" : 5126,
            "count" : 2145,
            "max" : [
                12.402509689331055,
                28.87173843383789,
                12.402509689331055
            ],
            "min" : [
                -12.402509689331055,
                2.65847110748291,
                -12.402509689331055
            ],
            "type" : "VEC3"
        },
        {
            "bufferView" : 9,
            "componentType" : 5126,
            "count" : 2145,
            "type" : "VEC3"
        },
        {
            "bufferView" : 10,
            "componentType" : 5126,
            "count" : 2145,
            "type" : "VEC2"
        },
        {
            "bufferView" : 11,
            "componentType" : 5123,
            "count" : 10368,
            "type" : "SCALAR"
        },
        {
            "bufferView" : 13,
            "componentType" : 5126,
            "count" : 3461,
            "max" : [
                0.6000002026557922,
                -0.7384774088859558,
                0.9600003957748413
            ],
            "min" : [
                -0.6000003218650818,
                -1.7000000476837158,
                -0.9600003361701965
            ],
            "type" : "VEC3"
        },
        {
            "bufferView" : 14,
            "componentType" : 5126,
            "count" : 3461,
            "type" : "VEC3"
        },
        {
            "bufferView" : 15,
            "componentType" : 5126,
            "count" : 3461,
            "type" : "VEC2"
        },
        {
            "bufferView" : 16,
            "componentType" : 5123,
            "count" : 13038,
            "type" : "SCALAR"
        },
        {
            "bufferView" : 18,
            "componentType" : 5126,
            "count" : 2022,
            "max" : [
                0.8951036930084229,
                0.6591187119483948,
                1.0199960470199585
            ],
            "min" : [
                0.6784793138504028,
                -0.6591334939002991,
                -1.0199979543685913
            ],
            "type" : "VEC3"
        },
        {
            "bufferView" : 19,
            "componentType" : 5126,
            "count" : 2022,
            "type" : "VEC3"
        },
        {
            "bufferView" : 20,
            "componentType" : 5123,
            "count" : 12132,
            "type" : "SCALAR"
        },
        {
            "bufferView" : 21,
            "componentType" : 5126,
            "count" : 600,
            "max" : [
                0.6223739981651306,
                0.42929860949516296,
                0.8950566053390503
            ],
            "min" : [
                -0.6223739981651306,
                -0.7549619078636169,
                -0.8950566053390503
            ],
            "type" : "VEC3"
        },
        {
            "bufferView" : 22,
            "componentType" : 5126,
            "count" : 600,
            "type" : "VEC3"
        },
        {
            "bufferView" : 23,
            "componentType" : 5123,
            "count" : 3456,
            "type" : "SCALAR"
        },
        {
            "bufferView" : 24,
            "componentType" : 5126,
            "count" : 260,
            "max" : [
                0.22999998927116394,
                0.4912322163581848,
                0.22999998927116394
            ],
            "min" : [
                -0.22999998927116394,
                0.3999999165534973,
                -0.22999998927116394
            ],
            "type" : "VEC3"
        },
        {
            "bufferView" : 25,
            "componentType" : 5126,
            "count" : 260,
            "type" : "VEC3"
        },
        {
            "bufferView" : 26,
            "componentType" : 5126,
            "count" : 260,
            "type" : "VEC2"
        },
        {
            "bufferView" : 27,
            "componentType" : 5123,
            "count" : 390,
            "type" : "SCALAR"
        },
        {
            "bufferView" : 29,
            "componentType" : 5126,
            "count" : 288,
            "max" : [
                0.005840419791638851,
                0.005231260787695646,
                1.2787280082702637
            ],
            "min" : [
                -2.5516159534454346,
                -1.1574020385742188,
                -1.2787280082702637
            ],
            "type" : "VEC3"
        },
        {
            "bufferView" : 30,
            "componentType" : 5126,
            "count" : 288,
            "type" : "VEC3"
        },
        {
            "bufferView" : 31,
            "componentType" : 5123,
            "count" : 288,
            "type" : "SCALAR"
        }
    ],
    "bufferViews" : [
        {
            "buffer" : 0,
            "byteLength" : 18048,
            "byteOffset" : 0
        },
        {
            "buffer" : 0,
            "byteLength" : 18048,
            "byteOffset" : 18048
        },
        {
            "buffer" : 0,
            "byteLength" : 12032,
            "byteOffset" : 36096
        },
        {
            "buffer" : 0,
            "byteLength" : 4416,
            "byteOffset" : 48128
        },
        {
            "buffer" : 0,
            "byteLength" : 270632,
            "byteOffset" : 52544
        },
        {
            "buffer" : 0,
            "byteLength" : 18048,
            "byteOffset" : 323176
        },
        {
            "buffer" : 0,
            "byteLength" : 18048,
            "byteOffset" : 341224
        },
        {
            "buffer" : 0,
            "byteLength" : 12032,
            "byteOffset" : 359272
        },
        {
            "buffer" : 0,
            "byteLength" : 25740,
            "byteOffset" : 371304
        },
        {
            "buffer" : 0,
            "byteLength" : 25740,
            "byteOffset" : 397044
        },
        {
            "buffer" : 0,
            "byteLength" : 17160,
            "byteOffset" : 422784
        },
        {
            "buffer" : 0,
            "byteLength" : 20736,
            "byteOffset" : 439944
        },
        {
            "buffer" : 0,
            "byteLength" : 241869,
            "byteOffset" : 460680
        },
        {
            "buffer" : 0,
            "byteLength" : 41532,
            "byteOffset" : 702552
        },
        {
            "buffer" : 0,
            "byteLength" : 41532,
            "byteOffset" : 744084
        },
        {
            "buffer" : 0,
            "byteLength" : 27688,
            "byteOffset" : 785616
        },
        {
            "buffer" : 0,
            "byteLength" : 26076,
            "byteOffset" : 813304
        },
        {
            "buffer" : 0,
            "byteLength" : 294540,
            "byteOffset" : 839380
        },
        {
            "buffer" : 0,
            "byteLength" : 24264,
            "byteOffset" : 1133920
        },
        {
            "buffer" : 0,
            "byteLength" : 24264,
            "byteOffset" : 1158184
        },
        {
            "buffer" : 0,
            "byteLength" : 24264,
            "byteOffset" : 1182448
        },
        {
            "buffer" : 0,
            "byteLength" : 7200,
            "byteOffset" : 1206712
        },
        {
            "buffer" : 0,
            "byteLength" : 7200,
            "byteOffset" : 1213912
        },
        {
            "buffer" : 0,
            "byteLength" : 6912,
            "byteOffset" : 1221112
        },
        {
            "buffer" : 0,
            "byteLength" : 3120,
            "byteOffset" : 1228024
        },
        {
            "buffer" : 0,
            "byteLength" : 3120,
            "byteOffset" : 1231144
        },
        {
            "buffer" : 0,
            "byteLength" : 2080,
            "byteOffset" : 1234264
        },
        {
            "buffer" : 0,
            "byteLength" : 780,
            "byteOffset" : 1236344
        },
        {
            "buffer" : 0,
            "byteLength" : 916,
            "byteOffset" : 1237124
        },
        {
            "buffer" : 0,
            "byteLength" : 3456,
            "byteOffset" : 1238040
        },
        {
            "buffer" : 0,
            "byteLength" : 3456,
            "byteOffset" : 1241496
        },
        {
            "buffer" : 0,
            "byteLength" : 576,
            "byteOffset" : 1244952
        }
    ],
    "samplers" : [
        {
            "magFilter" : 9729,
            "minFilter" : 9987
        }
    ],
    "buffers" : [
        {
            "byteLength" : 1245528,
            "uri" : "data:application/octet-stream;base64,"
        }
    ]
}
